<?xml version="1.0" encoding="UTF-8"?><svg id="Lag_1" xmlns="http://www.w3.org/2000/svg" viewBox="0 0 286.67 167.72"><defs><style>.cls-1{fill:#2b2b2b;font-size:6px;}.cls-1,.cls-2,.cls-3,.cls-4{font-family:MyriadPro-Regular, 'Myriad Pro';}.cls-5{letter-spacing:0em;}.cls-6{letter-spacing:0em;}.cls-7{fill:#fff;stroke:#1d1d1b;stroke-miterlimit:10;stroke-width:.25px;}.cls-8{letter-spacing:0em;}.cls-2{font-size:18px;}.cls-2,.cls-3{fill:#1d1d1b;}.cls-9{letter-spacing:0em;}.cls-10{fill:#fdfdfd;}.cls-3{font-size:9px;}.cls-11{fill:#3658a5;}.cls-12{letter-spacing:-.01em;}.cls-13{letter-spacing:-.01em;}.cls-14{fill:#2ba7e0;}.cls-15{letter-spacing:0em;}.cls-16{letter-spacing:0em;}.cls-4{fill:#969696;font-size:12px;}</style></defs><rect class="cls-7" x=".12" y=".12" width="286.42" height="139.78" rx="8" ry="8"/><path class="cls-10" d="m9.14,1.12h268.01c4.42,0,8,3.58,8,8v15.35H1.14v-15.35C1.14,4.71,4.72,1.12,9.14,1.12Z"/><text class="cls-4" transform="translate(111.58 14.8)"><tspan x="0" y="0">Sha</tspan><tspan class="cls-12" x="18.36" y="0">r</tspan><tspan x="22.16" y="0">e image</tspan></text><rect class="cls-7" x="29.72" y="41.88" width="39.64" height="68.76" rx="7.69" ry="7.69"/><rect class="cls-7" x="143.14" y="55.24" width="88.58" height="16.99"/><rect class="cls-7" x="143.14" y="90.63" width="88.58" height="16.99"/><text class="cls-1" transform="translate(143.33 49.1)"><tspan x="0" y="0">Sha</tspan><tspan class="cls-12" x="9.18" y="0">r</tspan><tspan x="11.08" y="0">e link</tspan></text><text class="cls-1" transform="translate(143.33 86.03)"><tspan x="0" y="0">Embed</tspan></text><text class="cls-3" transform="translate(145.28 66.38)"><tspan class="cls-15" x="0" y="0">h</tspan><tspan x="4.96" y="0">ttps://spinzam.</tspan><tspan class="cls-16" x="60.98" y="0">c</tspan><tspan x="64.96" y="0">om/s</tspan></text><text class="cls-3" transform="translate(145.28 101.82)"><tspan x="0" y="0">&lt;if</tspan><tspan class="cls-6" x="10.1" y="0">r</tspan><tspan x="13" y="0">ame s</tspan><tspan class="cls-8" x="34.82" y="0">r</tspan><tspan x="37.67" y="0">c=”</tspan><tspan class="cls-15" x="50.26" y="0">h</tspan><tspan x="55.21" y="0">ttps://s</tspan></text><path class="cls-11" d="m238.52,55.24h15.05c.51,0,.97.46.97.97v15.05c0,.51-.46.97-.97.97h-15.05c-.51,0-.97-.46-.97-.97v-15.05c0-.51.46-.97.97-.97Zm11.09,9.54h2.35l.1-2.24h-2.45v-1.66c0-.64.13-.99.94-.99h1.43l.05-2.09s-.64-.1-1.56-.1c-2.24,0-3.24,1.4-3.24,2.91v1.94h-1.66v2.24h1.66v6.22h2.37v-6.22Z"/><path class="cls-14" d="m273.59,55.24h-14.33c-.73,0-1.33.59-1.33,1.33v14.33c0,.73.59,1.33,1.33,1.33h14.33c.73,0,1.33-.59,1.33-1.33v-14.33c0-.73-.59-1.33-1.33-1.33Zm-3.78,7.17c0,.07,0,.15,0,.23,0,2.31-1.76,4.97-4.97,4.97-.99,0-1.9-.29-2.67-.78.14.02.28.02.42.02.82,0,1.57-.28,2.17-.75-.76-.01-1.41-.52-1.63-1.21.11.02.22.03.33.03.16,0,.32-.02.46-.06-.8-.16-1.4-.87-1.4-1.71v-.02c.24.13.5.21.79.22-.47-.31-.78-.85-.78-1.45,0-.32.09-.62.24-.88.86,1.06,2.15,1.75,3.6,1.82-.03-.13-.05-.26-.05-.4,0-.96.78-1.75,1.75-1.75.5,0,.96.21,1.27.55.4-.08.77-.22,1.11-.42-.13.41-.41.75-.77.97.35-.04.69-.14,1-.28-.23.35-.53.66-.87.91Z"/><text class="cls-2" transform="translate(47.4 161.09)"><tspan class="cls-13" x="0" y="0">C</tspan><tspan x="10.24" y="0">o</tspan><tspan class="cls-9" x="20.12" y="0">p</tspan><tspan x="30.24" y="0">y Embed </tspan><tspan class="cls-5" x="99.63" y="0">t</tspan><tspan x="105.48" y="0">o clipboa</tspan><tspan class="cls-8" x="174.74" y="0">r</tspan><tspan x="180.45" y="0">d</tspan></text></svg>