<?xml version="1.0" encoding="UTF-8"?><svg id="Lag_1" xmlns="http://www.w3.org/2000/svg" viewBox="0 0 76 76"><defs><style>.cls-1{fill:#fff;}.cls-2{fill:#007f5f;}.cls-2,.cls-3{fill-rule:evenodd;}.cls-3{fill:#5c5f62;}</style></defs><rect class="cls-1" width="76" height="76" rx="8" ry="8"/><path class="cls-3" d="m26.33,24c-1.29,0-2.33,1.04-2.33,2.33h0v23.33c0,1.29,1.04,2.33,2.33,2.33h23.33c1.29,0,2.33-1.04,2.33-2.33h0v-23.33c0-1.29-1.04-2.33-2.33-2.33h-23.33Zm7.78,5.44c1.72,0,3.11,1.4,3.11,3.11,0,1.72-1.39,3.1-3.11,3.11-1.72,0-3.11-1.39-3.11-3.11,0-1.72,1.39-3.11,3.11-3.11h0Zm14,19.44h-20.23c-.43,0-.77-.34-.77-.77,0-.17.05-.33.15-.46l5.53-6.3c.29-.31.78-.33,1.1-.04,0,0,.02.02.02.02l2.53,2.88,4.76-7.44c.24-.36.73-.45,1.08-.21.09.06.17.14.23.24l6.28,10.91c.28.53-.09,1.17-.68,1.17Z"/><circle class="cls-1" cx="48" cy="30" r="8"/><path class="cls-2" d="m48,22c-4.42,0-8,3.58-8,8s3.58,8,8,8,8-3.58,8-8-3.58-8-8-8Zm-2.29,4.29c-.39-.39-1.02-.39-1.41,0s-.39,1.02,0,1.41l2.29,2.29-2.29,2.29c-.39.39-.39,1.02,0,1.41s1.02.39,1.41,0l2.29-2.29,2.29,2.29c.39.39,1.02.39,1.41,0s.39-1.02,0-1.41l-2.29-2.29,2.29-2.29c.38-.4.37-1.03-.02-1.41-.39-.37-1-.37-1.39,0l-2.29,2.29s-2.29-2.29-2.29-2.29Z"/></svg>