<?xml version="1.0" encoding="UTF-8"?><svg id="Lag_1" xmlns="http://www.w3.org/2000/svg" viewBox="0 0 76 76"><defs><style>.cls-1{fill:#fff;}.cls-2{fill:#007f5f;fill-rule:evenodd;}</style></defs><rect class="cls-1" width="76" height="76" rx="8" ry="8"/><rect class="cls-1" width="76" height="76" rx="8" ry="8"/><path class="cls-2" d="m52,38c0,7.73-6.27,14-14,14s-14-6.27-14-14,6.27-14,14-14,14,6.27,14,14Zm-20.59-2.39l5.6-5.6c.55-.55,1.43-.55,1.98,0,0,0,0,0,0,0l5.6,5.6c.55.55.55,1.43,0,1.98s-1.43.55-1.98,0l-3.21-3.21v10.62c0,.77-.63,1.4-1.4,1.4s-1.4-.63-1.4-1.4h0v-10.62l-3.21,3.21c-.55.55-1.43.55-1.98,0s-.55-1.43,0-1.98Z"/></svg>